<svg width="100" height="100" xmlns="http://www.w3.org/2000/svg">
  <!-- Chat bubble -->
  <path d="M80 40c0 22.09-17.91 40-40 40-7.21 0-14.01-1.92-19.89-5.29L10 85l10.29-10.11C16.92 69.01 15 62.21 15 55c0-22.09 17.91-40 40-40s40 17.91 40 40z" fill="#4A90E2" fill-opacity="0.8"/>
  
  <!-- Person icon -->
  <circle cx="35" cy="35" r="8" fill="#FFFFFF"/>
  <path d="M30 50c0 5.52 4.48 10 10 10s10-4.48 10-10v-5h-20v5z" fill="#FFFFFF"/>
  
  <!-- Robot icon -->
  <rect x="55" y="30" width="16" height="16" rx="2" fill="#FFFFFF"/>
  <circle cx="60" cy="34" r="2" fill="#4A90E2"/>
  <circle cx="66" cy="34" r="2" fill="#4A90E2"/>
  <path d="M58 40h8" stroke="#4A90E2" stroke-width="2"/>
  <line x1="55" y1="30" x2="50" y2="25" stroke="#FFFFFF" stroke-width="2"/>
  <line x1="71" y1="30" x2="76" y2="25" stroke="#FFFFFF" stroke-width="2"/>
</svg>